STARTFONT 2.1
FONT -MIT-25FR KST-Medium-R-Normal--25-9-200-200-P-17-ISO8859-1
SIZE 9 200 200
FONTBOUNDINGBOX 17 25 -9 -5
STARTPROPERTIES 17
ADD_STYLE_NAME ""
AVERAGE_WIDTH 17
CHARSET_ENCODING "1"
CHARSET_REGISTRY "ISO8859"
DEFAULT_CHAR 0
FAMILY "25FR KST"
FONT_ASCENT 20
FONT_DESCENT 5
FOUNDRY "MIT"
PIXEL_SIZE 25
POINT_SIZE 9
RESOLUTION_X 200
RESOLUTION_Y 200
SETWIDTH_NAME "Normal"
SLANT "R"
SPACING "P"
WEIGHT_NAME "Medium"
ENDPROPERTIES
CHARS 126
STARTCHAR char1
ENCODING 1
SWIDTH 1887 0
DWIDTH 17 0
BBX 12 25 2 -5
BITMAP
0000
0000
0600
0600
0600
0600
0600
0600
0600
0600
0600
0600
0600
0600
C630
6660
36C0
1F80
0F00
0600
0000
0000
0000
0000
0000
ENDCHAR
STARTCHAR char2
ENCODING 2
SWIDTH 1887 0
DWIDTH 17 0
BBX 13 25 2 -5
BITMAP
0000
0000
0000
0000
0018
1E18
3F30
61F0
C0E0
C0C0
C0C0
C0C0
C0C0
C0C0
C0C0
C0C0
C0C0
61E0
3F70
1E30
0000
0000
0000
0000
0000
ENDCHAR
STARTCHAR char3
ENCODING 3
SWIDTH 1887 0
DWIDTH 17 0
BBX 11 25 2 -5
BITMAP
0000
0000
0000
1F80
3FC0
30C0
6060
6060
C060
C0E0
C3C0
C700
C180
C0C0
C060
C060
C060
E060
FFC0
DF80
C000
C000
C000
C000
8000
ENDCHAR
STARTCHAR char4
ENCODING 4
SWIDTH 1887 0
DWIDTH 17 0
BBX 14 25 1 -5
BITMAP
0000
0000
0000
0000
0000
0000
0000
0300
0780
0780
0CC0
0CC0
1860
1860
3030
3030
6018
6018
C00C
C00C
0000
0000
0000
0000
0000
ENDCHAR
STARTCHAR char5
ENCODING 5
SWIDTH 1887 0
DWIDTH 17 0
BBX 13 25 2 -5
BITMAP
0000
0000
0000
0000
0000
0000
0000
0000
0000
0000
0000
FFF8
FFF8
0018
0018
0018
0018
0018
0018
0000
0000
0000
0000
0000
0000
ENDCHAR
STARTCHAR char6
ENCODING 6
SWIDTH 1887 0
DWIDTH 17 0
BBX 8 25 2 -5
BITMAP
00
00
00
00
00
00
0F
3F
70
60
C0
C0
FE
FE
C0
C0
60
70
3F
0F
00
00
00
00
00
ENDCHAR
STARTCHAR char7
ENCODING 7
SWIDTH 1887 0
DWIDTH 17 0
BBX 13 25 2 -5
BITMAP
0000
0000
0000
0000
0000
0000
3FF8
7FF8
D860
9860
1860
1860
1860
1860
1860
1860
1860
1860
1860
1860
0000
0000
0000
0000
0000
ENDCHAR
STARTCHAR char8
ENCODING 8
SWIDTH 1887 0
DWIDTH 17 0
BBX 12 25 2 -5
BITMAP
C000
C000
6000
6000
3000
3000
1800
1800
0C00
0C00
0E00
0E00
1B00
1B00
3180
3180
60C0
60C0
C060
C070
0000
0000
0000
0000
0000
ENDCHAR
STARTCHAR char9
ENCODING 9
SWIDTH 1887 0
DWIDTH 17 0
BBX 1 25 0 -5
BITMAP
00
00
00
00
00
00
00
00
00
00
00
00
00
00
00
00
00
00
00
00
00
00
00
00
00
ENDCHAR
STARTCHAR char10
ENCODING 10
SWIDTH 1887 0
DWIDTH 17 0
BBX 1 25 0 -5
BITMAP
00
00
00
00
00
00
00
00
00
00
00
00
00
00
00
00
00
00
00
00
00
00
00
00
00
ENDCHAR
STARTCHAR char11
ENCODING 11
SWIDTH 1887 0
DWIDTH 17 0
BBX 12 25 2 -5
BITMAP
0000
0000
0600
0F00
1F80
36C0
6660
C630
0600
0600
0600
0600
0600
0600
0600
0600
0600
0600
0600
0600
0000
0000
0000
0000
0000
ENDCHAR
STARTCHAR char12
ENCODING 12
SWIDTH 1887 0
DWIDTH 17 0
BBX 1 25 0 -5
BITMAP
00
00
00
00
00
00
00
00
00
00
00
00
00
00
00
00
00
00
00
00
00
00
00
00
00
ENDCHAR
STARTCHAR char14
ENCODING 14
SWIDTH 1887 0
DWIDTH 17 0
BBX 16 25 0 -5
BITMAP
0000
0000
0000
0000
0000
0000
0000
0000
3C3C
7E7E
6666
C3C3
C3C3
C183
C3C3
67C6
7E7E
3C3C
0000
0000
0000
0000
0000
0000
0000
ENDCHAR
STARTCHAR char15
ENCODING 15
SWIDTH 1887 0
DWIDTH 17 0
BBX 12 25 2 -5
BITMAP
0000
0F00
3F80
70C0
60C0
0060
0060
0F30
3FB0
70F0
6070
C070
C030
C030
C030
C030
6060
70E0
3FC0
0F00
0000
0000
0000
0000
0000
ENDCHAR
STARTCHAR char16
ENCODING 16
SWIDTH 1887 0
DWIDTH 17 0
BBX 13 25 2 -5
BITMAP
0000
0000
0000
0000
0000
0000
0000
3FF8
7FF8
6000
C000
C000
C000
C000
C000
6000
7FF8
3FF8
0000
0000
0000
0000
0000
0000
0000
ENDCHAR
STARTCHAR char17
ENCODING 17
SWIDTH 1887 0
DWIDTH 17 0
BBX 13 25 2 -5
BITMAP
0000
0000
0000
0000
0000
0000
0000
FFE0
FFF0
0030
0018
0018
0018
0018
0018
0030
FFF0
FFE0
0000
0000
0000
0000
0000
0000
0000
ENDCHAR
STARTCHAR char18
ENCODING 18
SWIDTH 1887 0
DWIDTH 17 0
BBX 11 25 3 -5
BITMAP
0000
0000
0000
0000
0000
0000
1F00
7FC0
60C0
C060
C060
C060
C060
C060
C060
C060
C060
C060
C060
C060
0000
0000
0000
0000
0000
ENDCHAR
STARTCHAR char19
ENCODING 19
SWIDTH 1887 0
DWIDTH 17 0
BBX 11 25 3 -5
BITMAP
0000
0000
0000
0000
0000
0000
C060
C060
C060
C060
C060
C060
C060
C060
C060
C060
C060
60C0
7FC0
1F00
0000
0000
0000
0000
0000
ENDCHAR
STARTCHAR char20
ENCODING 20
SWIDTH 1887 0
DWIDTH 17 0
BBX 15 25 1 -5
BITMAP
C006
C006
C006
600C
600C
600C
3018
3018
3FF8
1FF0
1830
1830
0C60
0C60
0C60
06C0
06C0
06C0
0380
0380
0380
0100
0000
0000
0000
ENDCHAR
STARTCHAR char21
ENCODING 21
SWIDTH 1887 0
DWIDTH 17 0
BBX 9 25 5 -5
BITMAP
FF80
FF80
0180
0180
0180
0180
0180
0180
0180
0180
FF80
FF80
0180
0180
0180
0180
0180
0180
0180
0180
FF80
FF80
0000
0000
0000
ENDCHAR
STARTCHAR char22
ENCODING 22
SWIDTH 1887 0
DWIDTH 17 0
BBX 15 25 1 -5
BITMAP
0000
0000
0000
0000
0000
0000
1FF0
3FF8
701C
D836
CC66
C6C6
C386
C386
C6C6
CC66
D836
701C
3FF8
1FF0
0000
0000
0000
0000
0000
ENDCHAR
STARTCHAR char23
ENCODING 23
SWIDTH 1887 0
DWIDTH 17 0
BBX 16 25 0 -5
BITMAP
0000
0000
0000
0000
0000
0000
0420
0C30
1818
300C
6006
FFFF
FFFF
6006
300C
1818
0C30
0420
0000
0000
0000
0000
0000
0000
0000
ENDCHAR
STARTCHAR char24
ENCODING 24
SWIDTH 1887 0
DWIDTH 17 0
BBX 15 25 1 -5
BITMAP
0000
0000
0000
0000
0000
0000
0400
0C00
1800
3000
6000
FFFE
FFFE
6000
3000
1800
0C00
0400
0000
0000
0000
0000
0000
0000
0000
ENDCHAR
STARTCHAR char25
ENCODING 25
SWIDTH 1887 0
DWIDTH 17 0
BBX 15 25 1 -5
BITMAP
0000
0000
0000
0000
0000
0000
0040
0060
0030
0018
000C
FFFE
FFFE
000C
0018
0030
0060
0040
0000
0000
0000
0000
0000
0000
0000
ENDCHAR
STARTCHAR char26
ENCODING 26
SWIDTH 1887 0
DWIDTH 17 0
BBX 11 25 3 -5
BITMAP
0000
0000
0000
0000
00C0
00C0
0180
0180
0300
FFE0
FFE0
0600
0C00
0C00
FFE0
FFE0
3000
3000
6000
6000
0000
0000
0000
0000
0000
ENDCHAR
STARTCHAR char27
ENCODING 27
SWIDTH 1887 0
DWIDTH 17 0
BBX 15 25 0 -5
BITMAP
0000
0000
0000
0100
0100
0380
0380
07C0
0EE0
1C70
3838
701C
F01E
701C
3838
1C70
0EE0
07C0
0380
0380
0100
0100
0000
0000
0000
ENDCHAR
STARTCHAR char28
ENCODING 28
SWIDTH 1887 0
DWIDTH 17 0
BBX 14 25 1 -5
BITMAP
0000
0000
0000
0000
0000
000C
003C
00F0
03C0
0F00
3C00
F000
F000
3C00
0F00
03C0
00F0
003C
000C
0000
FFFC
FFFC
0000
0000
0000
ENDCHAR
STARTCHAR char29
ENCODING 29
SWIDTH 1887 0
DWIDTH 17 0
BBX 14 25 1 -5
BITMAP
0000
0000
0000
0000
0000
C000
F000
3C00
0F00
03C0
00F0
003C
003C
00F0
03C0
0F00
3C00
F000
C000
0000
FFFC
FFFC
0000
0000
0000
ENDCHAR
STARTCHAR char30
ENCODING 30
SWIDTH 1887 0
DWIDTH 17 0
BBX 11 25 2 -5
BITMAP
0000
0000
0000
0000
FFE0
FFE0
0000
0000
0000
0000
0000
FFE0
FFE0
0000
0000
0000
0000
0000
FFE0
FFE0
0000
0000
0000
0000
0000
ENDCHAR
STARTCHAR char31
ENCODING 31
SWIDTH 1887 0
DWIDTH 17 0
BBX 14 25 1 -5
BITMAP
0000
0000
0000
0000
0000
0000
C00C
C00C
6018
6018
3030
3030
1860
1860
0CC0
0CC0
0780
0780
0300
0300
0000
0000
0000
0000
0000
ENDCHAR
STARTCHAR char32
ENCODING 32
SWIDTH 1887 0
DWIDTH 17 0
BBX 1 25 0 -5
BITMAP
00
00
00
00
00
00
00
00
00
00
00
00
00
00
00
00
00
00
00
00
00
00
00
00
00
ENDCHAR
STARTCHAR char33
ENCODING 33
SWIDTH 1887 0
DWIDTH 17 0
BBX 4 25 2 -5
BITMAP
60
F0
F0
F0
F0
60
60
60
60
60
60
60
60
60
00
00
60
F0
F0
60
00
00
00
00
00
ENDCHAR
STARTCHAR char34
ENCODING 34
SWIDTH 1887 0
DWIDTH 17 0
BBX 10 25 3 -5
BITMAP
6180
F3C0
F3C0
F3C0
F3C0
6180
6180
6180
6180
6180
0000
0000
0000
0000
0000
0000
0000
0000
0000
0000
0000
0000
0000
0000
0000
ENDCHAR
STARTCHAR char35
ENCODING 35
SWIDTH 1887 0
DWIDTH 17 0
BBX 14 25 2 -5
BITMAP
0000
0630
0630
0630
0C60
0C60
7FFC
7FFC
0C60
18C0
18C0
18C0
FFF8
FFF8
3180
3180
3180
6300
6300
6300
0000
0000
0000
0000
0000
ENDCHAR
STARTCHAR char36
ENCODING 36
SWIDTH 1887 0
DWIDTH 17 0
BBX 10 25 4 -5
BITMAP
0C00
3F40
7FC0
CCC0
CCC0
CC40
CC00
CC00
6C00
3C00
1E00
0F00
0D80
0CC0
0CC0
8CC0
8CC0
CCC0
FF80
7F00
0C00
0C00
0C00
0000
0000
ENDCHAR
STARTCHAR char37
ENCODING 37
SWIDTH 1887 0
DWIDTH 17 0
BBX 13 25 2 -5
BITMAP
1E00
3300
6300
6300
6318
6330
6660
3CC0
0180
0300
0600
0C00
19E0
3330
6630
C630
0630
0630
0660
03C0
0000
0000
0000
0000
0000
ENDCHAR
STARTCHAR char38
ENCODING 38
SWIDTH 1887 0
DWIDTH 17 0
BBX 11 25 3 -5
BITMAP
1F00
3F00
6100
6100
6000
6000
3000
1F00
3F00
6000
6000
C7E0
C7E0
C180
C180
C180
6180
6380
3F80
1D80
0180
0180
0180
0000
0000
ENDCHAR
STARTCHAR char39
ENCODING 39
SWIDTH 1887 0
DWIDTH 17 0
BBX 4 25 6 -5
BITMAP
60
F0
F0
F0
F0
60
60
60
60
60
00
00
00
00
00
00
00
00
00
00
00
00
00
00
00
ENDCHAR
STARTCHAR char40
ENCODING 40
SWIDTH 1887 0
DWIDTH 17 0
BBX 8 25 8 -5
BITMAP
07
0C
18
30
30
70
60
C0
C0
C0
C0
C0
C0
C0
C0
60
60
30
30
18
0C
07
00
00
00
ENDCHAR
STARTCHAR char41
ENCODING 41
SWIDTH 1887 0
DWIDTH 17 0
BBX 8 25 1 -5
BITMAP
E0
30
18
0C
0C
06
06
03
03
03
03
03
03
03
03
06
06
0C
0C
18
30
E0
00
00
00
ENDCHAR
STARTCHAR char42
ENCODING 42
SWIDTH 1887 0
DWIDTH 17 0
BBX 12 25 2 -5
BITMAP
0000
0000
0000
0000
0000
0600
0F00
0F00
6660
F6F0
FFF0
6F60
0600
1F80
39C0
79E0
79E0
30C0
0000
0000
0000
0000
0000
0000
0000
ENDCHAR
STARTCHAR char43
ENCODING 43
SWIDTH 1887 0
DWIDTH 17 0
BBX 12 25 2 -5
BITMAP
0000
0000
0000
0000
0000
0000
0600
0600
0600
0600
0600
FFF0
FFF0
0600
0600
0600
0600
0600
0000
0000
0000
0000
0000
0000
0000
ENDCHAR
STARTCHAR char44
ENCODING 44
SWIDTH 1887 0
DWIDTH 17 0
BBX 5 25 2 -5
BITMAP
00
00
00
00
00
00
00
00
00
00
00
00
00
00
00
70
F8
F8
F8
38
38
30
70
E0
C0
ENDCHAR
STARTCHAR char45
ENCODING 45
SWIDTH 1887 0
DWIDTH 17 0
BBX 12 25 2 -5
BITMAP
0000
0000
0000
0000
0000
0000
0000
0000
0000
0000
0000
FFF0
FFF0
0000
0000
0000
0000
0000
0000
0000
0000
0000
0000
0000
0000
ENDCHAR
STARTCHAR char46
ENCODING 46
SWIDTH 1887 0
DWIDTH 17 0
BBX 5 25 2 -5
BITMAP
00
00
00
00
00
00
00
00
00
00
00
00
00
00
00
70
F8
F8
F8
70
00
00
00
00
00
ENDCHAR
STARTCHAR char47
ENCODING 47
SWIDTH 1887 0
DWIDTH 17 0
BBX 12 25 2 -5
BITMAP
0030
0030
0060
0060
00C0
00C0
0180
0180
0300
0300
0600
0600
0C00
0C00
1800
1800
3000
3000
6000
6000
C000
C000
0000
0000
0000
ENDCHAR
STARTCHAR char48
ENCODING 48
SWIDTH 1887 0
DWIDTH 17 0
BBX 11 25 3 -5
BITMAP
1F00
3F80
60C0
60C0
C060
C060
C060
C060
C060
C060
C060
C060
C060
C060
C060
C060
60C0
60C0
3F80
0F00
0000
0000
0000
0000
0000
ENDCHAR
STARTCHAR char49
ENCODING 49
SWIDTH 1887 0
DWIDTH 17 0
BBX 10 25 4 -5
BITMAP
0C00
1C00
3C00
6C00
CC00
8C00
0C00
0C00
0C00
0C00
0C00
0C00
0C00
0C00
0C00
0C00
0C00
1E00
7F80
FFC0
0000
0000
0000
0000
0000
ENDCHAR
STARTCHAR char50
ENCODING 50
SWIDTH 1887 0
DWIDTH 17 0
BBX 11 25 3 -5
BITMAP
1F00
3F80
60C0
4060
0060
0060
0060
0060
0060
00C0
0180
0300
0600
0C00
1800
3000
6020
C060
FFE0
FFE0
0000
0000
0000
0000
0000
ENDCHAR
STARTCHAR char51
ENCODING 51
SWIDTH 1887 0
DWIDTH 17 0
BBX 11 25 3 -5
BITMAP
FFC0
FFC0
C0C0
80C0
0180
0180
0300
0300
0600
0700
0180
00C0
00C0
0060
0060
0060
C0E0
E1C0
7F80
1E00
0000
0000
0000
0000
0000
ENDCHAR
STARTCHAR char52
ENCODING 52
SWIDTH 1887 0
DWIDTH 17 0
BBX 11 25 3 -5
BITMAP
0380
0380
0780
0580
0D80
0980
1980
1180
3180
2180
6180
4180
C180
FFE0
FFE0
0180
0180
0180
0180
0180
0000
0000
0000
0000
0000
ENDCHAR
STARTCHAR char53
ENCODING 53
SWIDTH 1887 0
DWIDTH 17 0
BBX 11 25 3 -5
BITMAP
7FE0
7FE0
6000
6000
6000
6000
6000
6000
7F00
7F80
00C0
00E0
0060
0060
0060
0060
C060
E0C0
FF80
7F00
0000
0000
0000
0000
0000
ENDCHAR
STARTCHAR char54
ENCODING 54
SWIDTH 1887 0
DWIDTH 17 0
BBX 11 25 3 -5
BITMAP
0380
0F00
1C00
3000
3000
6000
6000
FF00
F180
C0C0
C0E0
C060
C060
C060
C060
E060
60C0
70C0
3F80
0F00
0000
0000
0000
0000
0000
ENDCHAR
STARTCHAR char55
ENCODING 55
SWIDTH 1887 0
DWIDTH 17 0
BBX 10 25 4 -5
BITMAP
FFC0
FFC0
C0C0
80C0
0080
0180
0100
0300
0200
0200
0600
0400
0400
0C00
0800
1800
1000
1000
3000
3000
0000
0000
0000
0000
0000
ENDCHAR
STARTCHAR char56
ENCODING 56
SWIDTH 1887 0
DWIDTH 17 0
BBX 11 25 3 -5
BITMAP
1F00
3F80
60C0
60C0
C060
C060
60C0
60C0
3180
1F00
3F80
70C0
C0E0
C060
C060
C060
C060
E0E0
7FC0
1F80
0000
0000
0000
0000
0000
ENDCHAR
STARTCHAR char57
ENCODING 57
SWIDTH 1887 0
DWIDTH 17 0
BBX 11 25 3 -5
BITMAP
0E00
3F80
61C0
60C0
C060
C060
C060
C060
C060
6060
61E0
3FE0
1E60
00C0
00C0
00C0
0180
6300
FE00
7C00
0000
0000
0000
0000
0000
ENDCHAR
STARTCHAR char58
ENCODING 58
SWIDTH 1887 0
DWIDTH 17 0
BBX 5 25 2 -5
BITMAP
00
00
00
00
00
70
F8
F8
F8
70
00
00
00
00
00
70
F8
F8
F8
70
00
00
00
00
00
ENDCHAR
STARTCHAR char59
ENCODING 59
SWIDTH 1887 0
DWIDTH 17 0
BBX 5 25 2 -5
BITMAP
00
00
00
00
00
70
F8
F8
F8
70
00
00
00
00
00
70
F8
F8
F8
38
38
30
70
E0
C0
ENDCHAR
STARTCHAR char60
ENCODING 60
SWIDTH 1887 0
DWIDTH 17 0
BBX 9 25 4 -5
BITMAP
0000
0000
0000
0000
0000
0180
0300
0600
0C00
1800
3000
6000
C000
6000
3000
1800
0C00
0600
0300
0180
0000
0000
0000
0000
0000
ENDCHAR
STARTCHAR char61
ENCODING 61
SWIDTH 1887 0
DWIDTH 17 0
BBX 11 25 3 -5
BITMAP
0000
0000
0000
0000
0000
0000
0000
0000
0000
FFE0
FFE0
0000
0000
0000
FFE0
FFE0
0000
0000
0000
0000
0000
0000
0000
0000
0000
ENDCHAR
STARTCHAR char62
ENCODING 62
SWIDTH 1887 0
DWIDTH 17 0
BBX 9 25 4 -5
BITMAP
0000
0000
0000
0000
0000
C000
6000
3000
1800
0C00
0600
0300
0180
0300
0600
0C00
1800
3000
6000
C000
0000
0000
0000
0000
0000
ENDCHAR
STARTCHAR char63
ENCODING 63
SWIDTH 1887 0
DWIDTH 17 0
BBX 10 25 2 -5
BITMAP
3F00
7F80
E1C0
E0C0
E0C0
40C0
0180
0300
0600
0C00
0C00
0C00
0C00
0C00
0000
0000
0C00
1E00
1E00
0C00
0000
0000
0000
0000
0000
ENDCHAR
STARTCHAR char64
ENCODING 64
SWIDTH 1887 0
DWIDTH 17 0
BBX 10 25 4 -5
BITMAP
0E00
3F00
2180
6180
4080
4080
C780
8C80
9880
9880
9880
9880
8980
8FC0
8000
C000
4000
6080
3F80
1F00
0000
0000
0000
0000
0000
ENDCHAR
STARTCHAR char65
ENCODING 65
SWIDTH 1887 0
DWIDTH 17 0
BBX 15 25 1 -5
BITMAP
0300
0300
0780
0580
04C0
0CC0
08C0
08C0
0860
1860
1060
1060
1FF0
3FF0
2030
2030
2018
6018
E01C
F03E
0000
0000
0000
0000
0000
ENDCHAR
STARTCHAR char66
ENCODING 66
SWIDTH 1887 0
DWIDTH 17 0
BBX 13 25 2 -5
BITMAP
FF00
7FC0
30E0
3060
3030
3030
3030
3060
3FC0
3FC0
3060
3030
3018
3018
3018
3018
3018
3030
7FE0
FFC0
0000
0000
0000
0000
0000
ENDCHAR
STARTCHAR char67
ENCODING 67
SWIDTH 1887 0
DWIDTH 17 0
BBX 13 25 2 -5
BITMAP
0FE8
3FF8
3038
6018
6008
C000
C000
C000
C000
C000
C000
C000
C000
C000
C008
6018
6018
3038
3FF0
0FE0
0000
0000
0000
0000
0000
ENDCHAR
STARTCHAR char68
ENCODING 68
SWIDTH 1887 0
DWIDTH 17 0
BBX 13 25 2 -5
BITMAP
FFC0
7FE0
3030
3030
3018
3018
3018
3018
3018
3018
3018
3018
3018
3018
3018
3018
3030
3030
7FE0
FFC0
0000
0000
0000
0000
0000
ENDCHAR
STARTCHAR char69
ENCODING 69
SWIDTH 1887 0
DWIDTH 17 0
BBX 13 25 2 -5
BITMAP
FFF8
7FF8
1818
1808
1808
1800
1800
1810
1830
1FF0
1FF0
1830
1810
1800
1800
1808
1808
1818
7FF8
FFF8
0000
0000
0000
0000
0000
ENDCHAR
STARTCHAR char70
ENCODING 70
SWIDTH 1887 0
DWIDTH 17 0
BBX 13 25 2 -5
BITMAP
FFF8
7FF8
1818
1808
1808
1800
1800
1810
1830
1FF0
1FF0
1830
1810
1800
1800
1800
1800
1800
7E00
FF00
0000
0000
0000
0000
0000
ENDCHAR
STARTCHAR char71
ENCODING 71
SWIDTH 1887 0
DWIDTH 17 0
BBX 13 25 2 -5
BITMAP
0FE8
1FF8
3038
6018
6008
C000
C000
C000
C000
C000
C000
C1F8
C1F8
C018
C018
6018
6018
3038
3FF0
0FE0
0000
0000
0000
0000
0000
ENDCHAR
STARTCHAR char72
ENCODING 72
SWIDTH 1887 0
DWIDTH 17 0
BBX 15 25 1 -5
BITMAP
FC7E
783C
3018
3018
3018
3018
3018
3018
3FF8
3FF8
3018
3018
3018
3018
3018
3018
3018
3018
783C
FC7E
0000
0000
0000
0000
0000
ENDCHAR
STARTCHAR char73
ENCODING 73
SWIDTH 1887 0
DWIDTH 17 0
BBX 8 25 4 -5
BITMAP
FF
7E
18
18
18
18
18
18
18
18
18
18
18
18
18
18
18
18
7E
FF
00
00
00
00
00
ENDCHAR
STARTCHAR char74
ENCODING 74
SWIDTH 1887 0
DWIDTH 17 0
BBX 14 25 1 -5
BITMAP
03FC
01F8
0060
0060
0060
0060
0060
0060
0060
0060
0060
0060
0060
0060
6060
E060
E0C0
E1C0
7F80
1F00
0000
0000
0000
0000
0000
ENDCHAR
STARTCHAR char75
ENCODING 75
SWIDTH 1887 0
DWIDTH 17 0
BBX 13 25 2 -5
BITMAP
F8F8
7078
3060
30C0
3180
3300
3600
3C00
3C00
3E00
3600
3700
3300
3180
3180
30C0
30C0
3060
7078
F838
0000
0000
0000
0000
0000
ENDCHAR
STARTCHAR char76
ENCODING 76
SWIDTH 1887 0
DWIDTH 17 0
BBX 13 25 2 -5
BITMAP
FE00
7C00
1800
1800
1800
1800
1800
1800
1800
1800
1800
1800
1800
1800
1808
1818
1818
1838
FFF8
FFF8
0000
0000
0000
0000
0000
ENDCHAR
STARTCHAR char77
ENCODING 77
SWIDTH 1887 0
DWIDTH 17 0
BBX 16 25 0 -5
BITMAP
E00F
E00E
701E
7016
7016
5836
5826
5826
4C66
4C46
4C46
46C6
4686
4686
4386
4386
4386
4106
E00F
F00F
0000
0000
0000
0000
0000
ENDCHAR
STARTCHAR char78
ENCODING 78
SWIDTH 1887 0
DWIDTH 17 0
BBX 15 25 1 -5
BITMAP
F03E
701C
3008
3808
3C08
2C08
2608
2608
2308
2308
2188
2188
20C8
20C8
2068
2068
2038
2038
7018
F818
0000
0000
0000
0000
0000
ENDCHAR
STARTCHAR char79
ENCODING 79
SWIDTH 1887 0
DWIDTH 17 0
BBX 14 25 1 -5
BITMAP
0780
1FE0
3870
7038
6018
6018
C00C
C00C
C00C
C00C
C00C
C00C
C00C
C00C
6018
6018
7038
3870
1FE0
0780
0000
0000
0000
0000
0000
ENDCHAR
STARTCHAR char80
ENCODING 80
SWIDTH 1887 0
DWIDTH 17 0
BBX 12 25 2 -5
BITMAP
FFC0
7FE0
3070
3030
3030
3030
3030
3030
3030
3060
3FC0
3F80
3000
3000
3000
3000
3000
3000
7C00
FE00
0000
0000
0000
0000
0000
ENDCHAR
STARTCHAR char81
ENCODING 81
SWIDTH 1887 0
DWIDTH 17 0
BBX 14 25 1 -5
BITMAP
0780
1FE0
3870
7038
6018
6018
C00C
C00C
C00C
C00C
C00C
C00C
C00C
C00C
6018
6018
7038
3B70
1FE0
0780
01C0
00E0
0070
0038
001C
ENDCHAR
STARTCHAR char82
ENCODING 82
SWIDTH 1887 0
DWIDTH 17 0
BBX 16 25 0 -5
BITMAP
7FE0
3FF0
1838
1818
1818
1818
1818
1818
1818
1830
1FE0
1FC0
18C0
1860
1860
1830
1838
1818
7E1E
FF0F
0000
0000
0000
0000
0000
ENDCHAR
STARTCHAR char83
ENCODING 83
SWIDTH 1887 0
DWIDTH 17 0
BBX 11 25 3 -5
BITMAP
3F40
7FC0
C0C0
C040
C040
C000
C000
7000
3E00
0F80
01C0
00E0
0060
0060
0060
8060
C060
C0E0
FFC0
FF80
0000
0000
0000
0000
0000
ENDCHAR
STARTCHAR char84
ENCODING 84
SWIDTH 1887 0
DWIDTH 17 0
BBX 14 25 1 -5
BITMAP
FFFC
FFFC
C30C
C30C
8304
0300
0300
0300
0300
0300
0300
0300
0300
0300
0300
0300
0300
0FC0
1FE0
0000
0000
0000
0000
0000
0000
ENDCHAR
STARTCHAR char85
ENCODING 85
SWIDTH 1887 0
DWIDTH 17 0
BBX 15 25 1 -5
BITMAP
FC7E
783C
3018
3018
3018
3018
3018
3018
3018
3018
3018
3018
3018
3018
3018
3018
3018
1830
1FF0
07C0
0000
0000
0000
0000
0000
ENDCHAR
STARTCHAR char86
ENCODING 86
SWIDTH 1887 0
DWIDTH 17 0
BBX 15 25 1 -5
BITMAP
FC3E
781C
3008
3008
1818
1810
1810
1810
0C30
0C20
0C20
0C20
0660
0640
0640
0640
03C0
0380
0380
0100
0000
0000
0000
0000
0000
ENDCHAR
STARTCHAR char87
ENCODING 87
SWIDTH 1887 0
DWIDTH 17 0
BBX 17 25 0 -5
BITMAP
FC0F80
780700
300200
300200
300200
300200
300200
308200
19C400
19C400
19C400
1A4400
1A6400
1A6C00
0E6800
0C6800
0C3800
0C3800
0C3800
0C1000
000000
000000
000000
000000
000000
ENDCHAR
STARTCHAR char88
ENCODING 88
SWIDTH 1887 0
DWIDTH 17 0
BBX 14 25 1 -5
BITMAP
F07C
7038
1830
1820
0C60
0C40
06C0
0780
0380
0300
0380
0380
0780
04C0
0CC0
0860
1860
1030
7038
F83C
0000
0000
0000
0000
0000
ENDCHAR
STARTCHAR char89
ENCODING 89
SWIDTH 1887 0
DWIDTH 17 0
BBX 14 25 1 -5
BITMAP
F07C
7038
3010
3030
1820
1860
0C40
0CC0
0680
0780
0300
0300
0300
0300
0300
0300
0300
0300
0780
0FC0
0000
0000
0000
0000
0000
ENDCHAR
STARTCHAR char90
ENCODING 90
SWIDTH 1887 0
DWIDTH 17 0
BBX 12 25 2 -5
BITMAP
FFF0
FFF0
C030
8030
0060
00C0
00C0
0180
0300
0300
0600
0C00
0C00
1800
3000
3000
6010
C030
FFF0
FFF0
0000
0000
0000
0000
0000
ENDCHAR
STARTCHAR char91
ENCODING 91
SWIDTH 1887 0
DWIDTH 17 0
BBX 6 25 9 -5
BITMAP
FC
FC
C0
C0
C0
C0
C0
C0
C0
C0
C0
C0
C0
C0
C0
C0
C0
C0
C0
C0
FC
FC
00
00
00
ENDCHAR
STARTCHAR char92
ENCODING 92
SWIDTH 1887 0
DWIDTH 17 0
BBX 12 25 2 -5
BITMAP
C000
C000
6000
6000
3000
3000
1800
1800
0C00
0C00
0600
0600
0300
0300
0180
0180
00C0
00C0
0060
0060
0030
0030
0000
0000
0000
ENDCHAR
STARTCHAR char93
ENCODING 93
SWIDTH 1887 0
DWIDTH 17 0
BBX 6 25 2 -5
BITMAP
FC
FC
0C
0C
0C
0C
0C
0C
0C
0C
0C
0C
0C
0C
0C
0C
0C
0C
0C
0C
FC
FC
00
00
00
ENDCHAR
STARTCHAR char94
ENCODING 94
SWIDTH 1887 0
DWIDTH 17 0
BBX 12 25 2 -5
BITMAP
0000
0600
0F00
1980
30C0
6060
C030
0000
0000
0000
0000
0000
0000
0000
0000
0000
0000
0000
0000
0000
0000
0000
0000
0000
0000
ENDCHAR
STARTCHAR char95
ENCODING 95
SWIDTH 1887 0
DWIDTH 17 0
BBX 15 25 1 -5
BITMAP
0000
0000
0000
0000
0000
0000
0000
0000
0000
0000
0000
0000
0000
0000
0000
0000
0000
0000
0000
0000
FFFE
FFFE
0000
0000
0000
ENDCHAR
STARTCHAR char96
ENCODING 96
SWIDTH 1887 0
DWIDTH 17 0
BBX 11 25 3 -5
BITMAP
0400
0E00
1F00
0E00
2480
75C0
FBE0
75C0
2480
0E00
1F00
0E00
0400
0400
0400
0400
0400
0400
0400
0400
0000
0000
0000
0000
0000
ENDCHAR
STARTCHAR char97
ENCODING 97
SWIDTH 1887 0
DWIDTH 17 0
BBX 14 25 1 -5
BITMAP
0000
0000
0000
0000
0000
07C0
1FE0
3860
3060
3060
0060
0FE0
3FE0
7060
C060
C060
C0E0
C1E4
7F7C
3E78
0000
0000
0000
0000
0000
ENDCHAR
STARTCHAR char98
ENCODING 98
SWIDTH 1887 0
DWIDTH 17 0
BBX 14 25 1 -5
BITMAP
7000
F000
3000
3000
3000
33E0
37F0
3C18
380C
300C
300C
300C
300C
300C
300C
300C
3818
3C38
37F0
33C0
0000
0000
0000
0000
0000
ENDCHAR
STARTCHAR char99
ENCODING 99
SWIDTH 1887 0
DWIDTH 17 0
BBX 13 25 2 -5
BITMAP
0000
0000
0000
0000
0000
0FC0
3FE0
60E0
6060
C000
C000
C000
C000
C000
C000
E000
7018
7870
3FE0
0F80
0000
0000
0000
0000
0000
ENDCHAR
STARTCHAR char100
ENCODING 100
SWIDTH 1887 0
DWIDTH 17 0
BBX 14 25 1 -5
BITMAP
00F0
01F0
0030
0030
0030
1F30
3FB0
60F0
C070
C070
C030
C030
C030
C030
C030
C030
6070
70F4
3FBC
1F38
0000
0000
0000
0000
0000
ENDCHAR
STARTCHAR char101
ENCODING 101
SWIDTH 1887 0
DWIDTH 17 0
BBX 12 25 2 -5
BITMAP
0000
0000
0000
0000
0000
1F80
3FC0
6060
6030
C030
FFF0
FFF0
C000
C000
C000
C010
E030
7060
3FE0
0F80
0000
0000
0000
0000
0000
ENDCHAR
STARTCHAR char102
ENCODING 102
SWIDTH 1887 0
DWIDTH 17 0
BBX 13 25 2 -5
BITMAP
03F0
07F8
0C30
0C00
0C00
0C00
7FF0
FFE0
0C00
0C00
0C00
0C00
0C00
0C00
0C00
0C00
0C00
1E00
7FC0
FFE0
0000
0000
0000
0000
0000
ENDCHAR
STARTCHAR char103
ENCODING 103
SWIDTH 1887 0
DWIDTH 17 0
BBX 13 25 1 -5
BITMAP
0000
0000
0000
0000
0000
0F00
1FF8
30E0
6060
6060
6060
6060
3060
38C0
1F80
1F00
1800
1FC0
3FE0
7070
C018
C018
E030
7FE0
1FC0
ENDCHAR
STARTCHAR char104
ENCODING 104
SWIDTH 1887 0
DWIDTH 17 0
BBX 14 25 2 -5
BITMAP
7000
F000
3000
3000
3000
33C0
37E0
3C30
3830
3030
3030
3030
3030
3030
3030
3030
3030
3030
7878
FCFC
0000
0000
0000
0000
0000
ENDCHAR
STARTCHAR char105
ENCODING 105
SWIDTH 1887 0
DWIDTH 17 0
BBX 10 25 3 -5
BITMAP
1C00
1C00
1C00
0000
0000
7C00
FC00
0C00
0C00
0C00
0C00
0C00
0C00
0C00
0C00
0C00
0C00
1E00
7F80
FFC0
0000
0000
0000
0000
0000
ENDCHAR
STARTCHAR char106
ENCODING 106
SWIDTH 1887 0
DWIDTH 17 0
BBX 8 25 3 -5
BITMAP
07
07
07
00
00
1F
3F
03
03
03
03
03
03
03
03
03
03
03
03
03
03
06
66
FC
F8
ENDCHAR
STARTCHAR char107
ENCODING 107
SWIDTH 1887 0
DWIDTH 17 0
BBX 13 25 1 -5
BITMAP
7000
F000
3000
3000
3000
3038
3070
30C0
3180
3300
3600
3C00
3C00
3E00
3700
3380
31C0
30E0
7878
FC38
0000
0000
0000
0000
0000
ENDCHAR
STARTCHAR char108
ENCODING 108
SWIDTH 1887 0
DWIDTH 17 0
BBX 10 25 2 -5
BITMAP
7C00
FC00
0C00
0C00
0C00
0C00
0C00
0C00
0C00
0C00
0C00
0C00
0C00
0C00
0C00
0C00
0C00
1E00
7F80
FFC0
0000
0000
0000
0000
0000
ENDCHAR
STARTCHAR char109
ENCODING 109
SWIDTH 1887 0
DWIDTH 17 0
BBX 15 25 1 -5
BITMAP
0000
0000
0000
0000
0000
6330
F7F8
3DCC
398C
318C
318C
318C
318C
318C
318C
318C
318C
318C
7BDE
FBDE
0000
0000
0000
0000
0000
ENDCHAR
STARTCHAR char110
ENCODING 110
SWIDTH 1887 0
DWIDTH 17 0
BBX 14 25 1 -5
BITMAP
0000
0000
0000
0000
0000
63C0
F7E0
3C30
3830
3030
3030
3030
3030
3030
3030
3030
3030
3030
7878
FCFC
0000
0000
0000
0000
0000
ENDCHAR
STARTCHAR char111
ENCODING 111
SWIDTH 1887 0
DWIDTH 17 0
BBX 12 25 2 -5
BITMAP
0000
0000
0000
0000
0000
0F00
3FC0
70E0
6060
C030
C030
C030
C030
C030
C030
C030
6060
70E0
3FC0
0F00
0000
0000
0000
0000
0000
ENDCHAR
STARTCHAR char112
ENCODING 112
SWIDTH 1887 0
DWIDTH 17 0
BBX 13 25 1 -5
BITMAP
0000
0000
0000
0000
0000
73C0
F7E0
3C30
3818
3018
3018
3018
3018
3018
3018
3018
3030
3870
3FE0
3780
3000
3000
3000
7800
FC00
ENDCHAR
STARTCHAR char113
ENCODING 113
SWIDTH 1887 0
DWIDTH 17 0
BBX 13 25 1 -5
BITMAP
0000
0000
0000
0000
0000
1E30
3F70
61E0
60E0
C060
C060
C060
C060
C060
C060
C060
60E0
71E0
3FE0
0F60
0060
0060
0060
0070
0078
ENDCHAR
STARTCHAR char114
ENCODING 114
SWIDTH 1887 0
DWIDTH 17 0
BBX 12 25 2 -5
BITMAP
0000
0000
0000
0000
0000
70C0
FBE0
1B70
1E30
1C00
1800
1800
1800
1800
1800
1800
1800
1800
3E00
7F00
0000
0000
0000
0000
0000
ENDCHAR
STARTCHAR char115
ENCODING 115
SWIDTH 1887 0
DWIDTH 17 0
BBX 11 25 3 -5
BITMAP
0000
0000
0000
0000
0000
1F00
3FC0
61C0
C080
C000
6000
7C00
1F80
03C0
0060
0060
4060
E0C0
FFC0
7F00
0000
0000
0000
0000
0000
ENDCHAR
STARTCHAR char116
ENCODING 116
SWIDTH 1887 0
DWIDTH 17 0
BBX 13 25 2 -5
BITMAP
0000
0400
0C00
0C00
0C00
7FF0
FFE0
0C00
0C00
0C00
0C00
0C00
0C00
0C00
0C00
0C00
0C18
0C70
0FE0
0780
0000
0000
0000
0000
0000
ENDCHAR
STARTCHAR char117
ENCODING 117
SWIDTH 1887 0
DWIDTH 17 0
BBX 15 25 1 -5
BITMAP
0000
0000
0000
0000
0000
7038
F078
3018
3018
3018
3018
3018
3018
3018
3018
3038
3078
38DE
1F9E
0F18
0000
0000
0000
0000
0000
ENDCHAR
STARTCHAR char118
ENCODING 118
SWIDTH 1887 0
DWIDTH 17 0
BBX 15 25 1 -5
BITMAP
0000
0000
0000
0000
0000
F87E
783C
1818
1810
0C10
0C30
0C20
0C20
0660
0640
0640
06C0
0380
0380
0380
0000
0000
0000
0000
0000
ENDCHAR
STARTCHAR char119
ENCODING 119
SWIDTH 1887 0
DWIDTH 17 0
BBX 16 25 0 -5
BITMAP
0000
0000
0000
0000
0000
F81F
700E
3004
3004
3184
318C
3188
1BC8
1AC8
1A48
1A58
1C70
1C70
0C30
0C30
0000
0000
0000
0000
0000
ENDCHAR
STARTCHAR char120
ENCODING 120
SWIDTH 1887 0
DWIDTH 17 0
BBX 14 25 1 -5
BITMAP
0000
0000
0000
0000
0000
F0FC
7878
1C60
0CC0
0F80
0700
0300
0300
0780
0D80
18C0
18E0
3060
7878
FC7C
0000
0000
0000
0000
0000
ENDCHAR
STARTCHAR char121
ENCODING 121
SWIDTH 1887 0
DWIDTH 17 0
BBX 14 25 1 -5
BITMAP
0000
0000
0000
0000
0000
F0FC
7078
3030
1820
1860
1840
0CC0
0C80
0680
0780
0700
0300
0600
0600
0600
0C00
0C00
3800
7000
7000
ENDCHAR
STARTCHAR char122
ENCODING 122
SWIDTH 1887 0
DWIDTH 17 0
BBX 10 25 3 -5
BITMAP
0000
0000
0000
0000
0000
FFC0
FFC0
C180
8300
0600
0400
0C00
1800
1000
3000
6000
E040
C0C0
FFC0
FFC0
0000
0000
0000
0000
0000
ENDCHAR
STARTCHAR char123
ENCODING 123
SWIDTH 1887 0
DWIDTH 17 0
BBX 9 25 6 -5
BITMAP
0380
0600
0C00
0C00
1800
1800
1800
1800
1800
3000
7000
E000
7000
3000
1800
1800
1800
1800
1800
0C00
0C00
0600
0380
0000
0000
ENDCHAR
STARTCHAR char124
ENCODING 124
SWIDTH 1887 0
DWIDTH 17 0
BBX 2 25 7 -5
BITMAP
C0
C0
C0
C0
C0
C0
C0
C0
C0
C0
C0
C0
C0
C0
C0
C0
C0
C0
C0
C0
C0
C0
00
00
00
ENDCHAR
STARTCHAR char125
ENCODING 125
SWIDTH 1887 0
DWIDTH 17 0
BBX 9 25 2 -5
BITMAP
E000
3000
1800
1800
0C00
0C00
0C00
0C00
0C00
0600
0700
0380
0700
0600
0C00
0C00
0C00
0C00
0C00
1800
1800
3000
E000
0000
0000
ENDCHAR
STARTCHAR char126
ENCODING 126
SWIDTH 1887 0
DWIDTH 17 0
BBX 14 25 1 -5
BITMAP
0000
1C00
3E0C
6318
C1F0
00E0
0000
0000
0000
0000
0000
0000
0000
0000
0000
0000
0000
0000
0000
0000
0000
0000
0000
0000
0000
ENDCHAR
STARTCHAR char127
ENCODING 127
SWIDTH 1887 0
DWIDTH 17 0
BBX 1 25 0 -5
BITMAP
00
00
00
00
00
00
00
00
00
00
00
00
00
00
00
00
00
00
00
00
00
00
00
00
00
ENDCHAR
ENDFONT
